<svg id="icons" height="512" viewBox="0 0 64 64" width="512" xmlns="http://www.w3.org/2000/svg"><path d="m41 24.001h-10a3.00328 3.00328 0 0 1 -3-3v-8a3.00328 3.00328 0 0 1 3-3h10a3.00328 3.00328 0 0 1 3 3v8a3.00328 3.00328 0 0 1 -3 3zm-10-12a1.00067 1.00067 0 0 0 -1 1v8a1.00068 1.00068 0 0 0 1 1h10a1.00068 1.00068 0 0 0 1-1v-8a1.00067 1.00067 0 0 0 -1-1z"/><path d="m29 17.001a6 6 0 1 1 6-6 1 1 0 0 1 -2 0 4 4 0 1 0 -4 4 1 1 0 1 1 0 2z"/><path d="m23 20.001a.99943.99943 0 0 1 -1-1 4.004 4.004 0 0 1 4-4 1 1 0 1 1 0 2 2.0026 2.0026 0 0 0 -2 2 .99943.99943 0 0 1 -1 1z"/><path d="m29 17.001h-3a1 1 0 0 1 0-2h3a1 1 0 1 1 0 2z"/><path d="m23 24.001a3.00328 3.00328 0 0 1 -3-3 1 1 0 0 1 2 0 1.00068 1.00068 0 0 0 1 1 1 1 0 0 1 0 2z"/><path d="m21 22.001a.99943.99943 0 0 1 -1-1v-1a1 1 0 0 1 2 0v1a.99943.99943 0 0 1 -1 1z"/><path d="m31 24.001h-8a1 1 0 0 1 0-2h8a1 1 0 0 1 0 2z"/><path d="m29 21.001h-8a1 1 0 0 1 0-2h8a1 1 0 0 1 0 2z"/><path d="m23 21.001a.99943.99943 0 0 1 -1-1v-1a1 1 0 0 1 2 0v1a.99943.99943 0 0 1 -1 1z"/><path d="m36.01953 18.001a1 1 0 0 1 -.00976-2h.00976a1 1 0 0 1 0 2z"/><path d="m61 58.999h-10a3.00328 3.00328 0 0 1 -3-3v-8a3.00328 3.00328 0 0 1 3-3h10a3.00328 3.00328 0 0 1 3 3v8a3.00328 3.00328 0 0 1 -3 3zm-10-12a1.00068 1.00068 0 0 0 -1 1v8a1.00067 1.00067 0 0 0 1 1h10a1.00067 1.00067 0 0 0 1-1v-8a1.00068 1.00068 0 0 0 -1-1z"/><path d="m49 51.999a6 6 0 1 1 6-6 1 1 0 0 1 -2 0 4 4 0 1 0 -4 4 1 1 0 0 1 0 2z"/><path d="m43 54.999a.99942.99942 0 0 1 -1-1 4.004 4.004 0 0 1 4-4 1 1 0 0 1 0 2 2.0026 2.0026 0 0 0 -2 2 .99942.99942 0 0 1 -1 1z"/><path d="m49 51.999h-3a1 1 0 0 1 0-2h3a1 1 0 0 1 0 2z"/><path d="m43 58.999a3.00328 3.00328 0 0 1 -3-3 1 1 0 0 1 2 0 1.00067 1.00067 0 0 0 1 1 1 1 0 0 1 0 2z"/><path d="m41 56.999a.99942.99942 0 0 1 -1-1v-1a1 1 0 0 1 2 0v1a.99942.99942 0 0 1 -1 1z"/><path d="m51 58.999h-8a1 1 0 0 1 0-2h8a1 1 0 0 1 0 2z"/><path d="m49 55.999h-8a1 1 0 0 1 0-2h8a1 1 0 0 1 0 2z"/><path d="m43 55.999a.99942.99942 0 0 1 -1-1v-1a1 1 0 0 1 2 0v1a.99942.99942 0 0 1 -1 1z"/><path d="m56.01953 52.999a1 1 0 0 1 -.00976-2h.00976a1 1 0 0 1 0 2z"/><path d="m21 58.999h-10a3.00328 3.00328 0 0 1 -3-3v-8a3.00328 3.00328 0 0 1 3-3h10a3.00328 3.00328 0 0 1 3 3v8a3.00328 3.00328 0 0 1 -3 3zm-10-12a1.00068 1.00068 0 0 0 -1 1v8a1.00067 1.00067 0 0 0 1 1h10a1.00067 1.00067 0 0 0 1-1v-8a1.00068 1.00068 0 0 0 -1-1z"/><path d="m9 51.999a6 6 0 1 1 6-6 1 1 0 0 1 -2 0 4 4 0 1 0 -4 4 1 1 0 0 1 0 2z"/><path d="m3 54.999a.99942.99942 0 0 1 -1-1 4.004 4.004 0 0 1 4-4 1 1 0 0 1 0 2 2.0026 2.0026 0 0 0 -2 2 .99942.99942 0 0 1 -1 1z"/><path d="m9 51.999h-3a1 1 0 0 1 0-2h3a1 1 0 0 1 0 2z"/><path d="m3 58.999a3.00328 3.00328 0 0 1 -3-3 1 1 0 0 1 2 0 1.00067 1.00067 0 0 0 1 1 1 1 0 0 1 0 2z"/><path d="m1 56.999a.99942.99942 0 0 1 -1-1v-1a1 1 0 0 1 2 0v1a.99942.99942 0 0 1 -1 1z"/><path d="m11 58.999h-8a1 1 0 0 1 0-2h8a1 1 0 0 1 0 2z"/><path d="m9 55.999h-8a1 1 0 0 1 0-2h8a1 1 0 0 1 0 2z"/><path d="m3 55.999a.99942.99942 0 0 1 -1-1v-1a1 1 0 0 1 2 0v1a.99942.99942 0 0 1 -1 1z"/><path d="m16.01953 52.999a1 1 0 0 1 -.00976-2h.00976a1 1 0 1 1 0 2z"/><path d="m32 28.001a.99943.99943 0 0 1 -1-1v-4a1 1 0 0 1 2 0v4a.99943.99943 0 0 1 -1 1z"/><path d="m44.3584 45.13672a.99443.99443 0 0 1 -.499-.13379l-3.69825-2.13574a1.00016 1.00016 0 0 1 1-1.73242l3.69825 2.13574a1 1 0 0 1 -.501 1.86621z"/><path d="m16.41113 47.001a1 1 0 0 1 -.501-1.86621l6.92968-4a1.00016 1.00016 0 1 1 1 1.73242l-6.92968 4a.99449.99449 0 0 1 -.499.13379z"/><path d="m32 48.001a11 11 0 1 1 11-11 11.01245 11.01245 0 0 1 -11 11zm0-20a9 9 0 1 0 9 9 9.00984 9.00984 0 0 0 -9-9z"/><path d="m36.99805 43.001h-10a.99942.99942 0 0 1 -1-1v-5a1 1 0 0 1 2 0v4h8v-4a1 1 0 0 1 2 0v5a.99943.99943 0 0 1 -1 1z"/><path d="m36.99805 39.001a.99942.99942 0 0 1 -1-1v-3a1 1 0 0 1 2 0v3a.99943.99943 0 0 1 -1 1z"/><path d="m26.99805 39.001a.99942.99942 0 0 1 -1-1v-3a1 1 0 0 1 2 0v3a.99943.99943 0 0 1 -1 1z"/><path d="m26.99805 36.001a.99942.99942 0 0 1 -1-1 2.0026 2.0026 0 0 1 2-2 1 1 0 0 1 0 2 .99943.99943 0 0 1 -1 1z"/><path d="m36.99805 36.001a.99942.99942 0 0 1 -1-1v-.002a.999.999 0 1 1 0-1.998 2.0026 2.0026 0 0 1 2 2 .99943.99943 0 0 1 -1 1z"/><path d="m36.99805 38.001h-10a1 1 0 0 1 0-2h10a1 1 0 1 1 0 2z"/><path d="m35.99805 35.001h-8a1 1 0 0 1 0-2h8a1 1 0 1 1 0 2z"/><path d="m33.99805 35.001h-4a.99942.99942 0 0 1 -1-1v-3a.99942.99942 0 0 1 1-1h4a.99942.99942 0 0 1 1 1v3a.99943.99943 0 0 1 -1 1zm-3-2h2v-1h-2z"/><path d="m31.99805 39.001a.99942.99942 0 0 1 -1-1v-2a1 1 0 0 1 2 0v2a.99943.99943 0 0 1 -1 1z"/></svg>