
<svg version="1.1" id="Capa_1" xmlns="http://www.w3.org/2000/svg" xmlns:xlink="http://www.w3.org/1999/xlink" x="0px" y="0px" width="478.159px" height="478.159px" viewBox="0 0 478.159 478.159" style="enable-background:new 0 0 478.159 478.159;" xml:space="preserve">
<g><path d="M219.056,344.702v-25.434h90.117c-0.271,14.219,1.483,31.256,18.402,31.404c9.532,0.081,21.658-4.849,29.209-10.402 c5.626-4.132,6.83-7.853,14.441-10.463c5.238-1.783,10.725-1.434,16.122-0.115v36.055v10.08v12.624h22.701v-12.624h45.407v12.624 h22.703v-12.624v-10.08V89.708h-90.816v233.753c-10.813-2.217-21.637-1.117-30.563,7.737c-7.425,7.375-21.596,14.325-32.666,12.793 c-8.53-1.171-9.08-14.688-8.642-24.723h37.592V93.764H0v225.504h134.014v25.434 M23.193,299.943v-188.78h306.682v188.767H23.193 V299.943z M432.747,114.583c10.747,0,19.459,8.706,19.459,19.458c0,10.741-8.712,19.461-19.459,19.461 c-10.745,0-19.462-8.714-19.462-19.461C413.289,123.289,422.002,114.583,432.747,114.583z M463.292,290.333h-61.088v-11.896h61.088 V290.333z M463.292,264.921h-61.088v-11.885h61.088V264.921z M463.292,241.145h-61.088v-11.89h61.088V241.145z M463.292,215.738 h-61.088v-11.896h61.088V215.738z M264.056,335.27c0,4.251-35.12,7.704-78.445,7.704c-43.325,0-78.447-3.453-78.447-7.704 c0-4.253,35.122-7.703,78.447-7.703C228.936,327.566,264.056,331.017,264.056,335.27z"/></g>
</svg>
