<?xml version="1.0"?>
<svg xmlns="http://www.w3.org/2000/svg" viewBox="0 0 512 512" width="24" height="24"><g id="Outline"><path d="M296,200H216a16.019,16.019,0,0,0-16,16v48a16.019,16.019,0,0,0,16,16h21.754l-4,16H224v16h64V296h-9.754l-4-16H296a16.019,16.019,0,0,0,16-16V216A16.019,16.019,0,0,0,296,200Zm-34.246,96H250.246l4-16h3.508ZM296,264H216V216h80l.01,48ZM32,192H53.754l-4,16H40v16h64V208H94.246l-4-16H112a16.019,16.019,0,0,0,16-16V128a16.019,16.019,0,0,0-16-16H32a16.019,16.019,0,0,0-16,16v8H32v-8h80v48H32V152H16v24A16.019,16.019,0,0,0,32,192Zm41.754,0,4,16H66.246l4-16ZM296,16H216a16.019,16.019,0,0,0-16,16V80a16.019,16.019,0,0,0,16,16h21.754l-4,16H224v16h64V112h-9.754l-4-16H296a16.019,16.019,0,0,0,16-16V32A16.019,16.019,0,0,0,296,16Zm-34.246,96H250.246l4-16h3.508ZM296,80H216V32h80l.01,48Zm0,304H216a16.019,16.019,0,0,0-16,16v48a16.019,16.019,0,0,0,16,16h21.754l-4,16H224v16h64V480h-9.754l-4-16H296a16.019,16.019,0,0,0,16-16V400A16.019,16.019,0,0,0,296,384Zm-34.246,96H250.246l4-16h3.508ZM296,448H216V400h80l.01,48ZM112,384a16.019,16.019,0,0,0,16-16V320a16.019,16.019,0,0,0-16-16H32a16.019,16.019,0,0,0-16,16v48a16.019,16.019,0,0,0,16,16H53.754l-4,16H40v16h64V400H94.246l-4-16ZM32,320h80l.01,48H32Zm45.754,80H66.246l4-16h3.508ZM480,112H400a16.019,16.019,0,0,0-16,16v48a16.019,16.019,0,0,0,16,16h21.754l-4,16H408v16h64V208h-9.754l-4-16H480a16.019,16.019,0,0,0,16-16V128A16.019,16.019,0,0,0,480,112Zm-34.246,96H434.246l4-16h3.508ZM480,176H400V128h80l.01,48Zm0,128H400a16.019,16.019,0,0,0-16,16v48a16.019,16.019,0,0,0,16,16h21.754l-4,16H408v16h64V400h-9.754l-4-16H480a16.019,16.019,0,0,0,16-16V352H480v16H400V320h80v16h16V320A16.019,16.019,0,0,0,480,304Zm-38.246,80,4,16H434.246l4-16ZM264,144v40H248V144ZM149,177.753l40,32-10,12.494-40-32Zm38.564,127.591,8.875,13.312-48,32-8.875-13.312ZM333,222.247l-10-12.494,40-32,10,12.494Zm30.564,128.409-48-32,8.875-13.312,48,32ZM264,328v40H248V328ZM64,288V240H80v48Zm60.24-185.216-8.48-13.568,64-40,8.48,13.568Zm0,322.432,64,40-8.48,13.568-64-40ZM387.76,102.784l-64-40,8.48-13.568,64,40Zm0,322.432,8.48,13.568-64,40-8.48-13.568ZM448,240v48H432V240Z"/></g></svg>
